Coordinates
version=1
nRows=10
nColumns=33
inDegrees=yes

Units are S.I. units (second, meters, Newtons, ...)
Angles are in degrees.

endheader
time	ground_thorax_rot_x	ground_thorax_rot_y	ground_thorax_rot_z	ground_thorax_tx	ground_thorax_ty	ground_thorax_tz	clav_prot_r	clav_elev_r	scapula_abduction_r	scapula_elevation_r	scapula_upward_rot_r	scapula_winging_r	shoulder_elv_r	plane_of_elev_r	axial_rot_r	elbow_flexion_r	pro_sup_r	wrist_flex_r	wrist_dev_r	clav_prot_l	clav_elev_l	scapula_abduction_l	scapula_elevation_l	scapula_upward_rot_l	scapula_winging_l	shoulder_elv_l	plane_of_elev_l	axial_rot_l	elbow_flexion_l	pro_sup_l	wrist_flex_l	wrist_dev_l
     11.57000000	     32.68077693	     18.53367777	     29.63970180	    -51.11975821	    841.98259305	    -51.65830762	     12.36098292	     34.96578574	     27.80313474	     45.00000000	    -42.68937792	   1355.00678095	   1150.59742079	     23.27176312	   -176.81104720	   1437.72782904	    516.66329228	     16.46785371	     14.40060538	     -6.37135121	    -45.00000000	    -44.26185558	     45.00000000	    -45.00000000	   5139.61093842	  -3508.26037407	     18.01268081	   -179.99999979	   2161.48688824	   -161.88404536	     10.74930523	    -19.55029307
     11.58000000	     32.66525614	     18.57534027	     29.68296212	    -49.26447863	    841.40375751	    -51.70776560	     12.41738687	     35.05786456	     27.89054837	     45.00000000	    -42.49634304	   1355.05740019	   1150.58266263	     23.21414044	   -177.10618172	   1437.75965658	    516.35862595	     16.37950690	     14.43521032	     -6.35894920	    -45.00000000	    -44.27900293	     45.00000000	    -45.00000000	   5139.33631060	  -3508.24442653	     18.08106846	   -179.99999979	   2161.45820162	   -162.45475970	     10.86028212	    -19.38834806
     11.59000000	     32.66752692	     18.42676292	     29.60750115	    -47.35422562	    840.80823397	    -51.74756941	     12.28266230	     35.13643669	     27.78572364	     45.00000000	    -42.07716457	   1355.27027033	   1150.50178363	     23.34022448	   -177.34900969	   1437.70363339	    516.06820432	     16.30368415	     14.49705428	     -6.21102025	    -45.00000000	    -44.47619478	     45.00000000	    -45.00000000	   5139.21379184	  -3508.34376128	     18.08734966	   -179.99999979	   2161.29848960	   -163.08113359	     10.95886621	    -19.27125436
     11.60000000	     32.57813612	     18.55580445	     29.75556005	    -45.39722350	    840.20328712	    -51.77779364	     12.22262711	     35.14867688	     27.90664292	     45.00000000	    -41.97601771	   1355.39894713	   1150.50676924	     23.15512055	   -177.58266501	   1437.72547133	    515.81741267	     16.20173353	     14.57164447	     -6.36515208	    -45.00000000	    -44.50024180	     45.00000000	    -45.00000000	   5138.88241501	  -3508.31934080	     18.04241618	   -179.99999979	   2161.27206157	   -163.65813095	     11.17321283	    -19.11923150
     11.61000000	     32.65890369	     18.28282717	     29.54074388	    -43.39180923	    839.59209957	    -51.79872047	     12.25864710	     35.30755326	     27.92876079	     45.00000000	    -41.56848712	   1355.49389521	   1150.33708425	     23.38900397	   -177.83895214	   1437.60125286	    515.56800522	     16.13244413	     14.65882297	     -6.22092605	    -45.00000000	    -44.72946070	     45.00000000	    -45.00000000	   5138.81392932	  -3508.45065003	     18.10173467	   -179.99999979	   2161.03571047	   -164.32541564	     11.20115452	    -19.02166721
     11.62000000	     32.70151869	     18.15314975	     29.34510048	    -41.34790292	    838.98060769	    -51.81073224	     12.23411154	     35.38882463	     27.94786423	     45.00000000	    -41.32990981	   1355.55982189	   1150.27643032	     23.51198562	   -177.99022886	   1437.50831406	    515.34368382	     16.05598490	     14.73726522	     -6.18155381	    -45.00000000	    -44.89651015	     45.00000000	    -45.00000000	   5138.60541740	  -3508.51316999	     18.24036111	   -179.99999979	   2160.91748716	   -165.03587925	     11.31324986	    -18.87671645
     11.63000000	     32.47344121	     18.40645296	     29.75731426	    -39.26837727	    838.37106661	    -51.81499197	     11.92257307	     35.32819096	     27.82316430	     45.00000000	    -41.10799951	   1356.03477433	   1150.53072404	     23.19019770	   -178.28241393	   1437.58718717	    515.17409114	     15.87271353	     14.88607569	     -6.26082551	    -45.00000000	    -45.00000000	     45.00000000	    -45.00000000	   5138.22528793	  -3508.44375692	     17.93307684	   -179.99999979	   2160.98895020	   -165.56391974	     11.60784663	    -18.66152045
     11.64000000	     32.55516109	     18.22586073	     29.58924987	    -37.14919307	    837.76133835	    -51.81289950	     12.23944330	     35.55932154	     28.12851961	     45.00000000	    -40.77584102	   1355.82054361	   1150.11395978	     23.39782387	   -178.67282263	   1437.54523208	    514.98637221	     15.83511237	     14.83920448	     -6.17701014	    -45.00000000	    -44.99911560	     45.00000000	    -45.00000000	   5138.07752891	  -3508.58222484	     18.10747848	   -179.99999979	   2160.86489147	   -166.16665682	     11.53254856	    -18.52479952
     11.65000000	     32.64464333	     17.96684408	     29.32729877	    -35.00551991	    837.15426297	    -51.80605372	     12.12293157	     35.61348202	     28.12451361	     45.00000000	    -40.46914059	   1355.99168479	   1150.12112472	     23.53350815	   -178.75427356	   1437.38588873	    514.90522012	     15.72616687	     15.00870355	     -6.23124912	    -45.00000000	    -45.00000000	     45.00000000	    -45.00000000	   5137.87626524	  -3508.56591822	     18.24253899	   -179.99999979	   2160.67186357	   -166.78516546	     11.67369243	    -18.40878177
     11.66000000	     32.71110552	     17.83970093	     29.20368865	    -32.83642757	    836.54725097	    -51.79577498	     12.06465180	     35.73993797	     28.41347078	     45.00000000	    -40.16445585	   1356.00587220	   1149.98082971	     23.51794696	   -179.02843861	   1437.35892959	    514.81578660	     15.62696273	     15.07015514	     -6.20609843	    -45.00000000	    -45.00000000	     45.00000000	    -45.00000000	   5137.61863864	  -3508.58755587	     18.33938757	   -179.99999979	   2160.67009677	   -167.39507440	     11.76503834	    -18.22958980
